<svg width="138" height="30" viewBox="0 0 138 30" fill="none" xmlns="http://www.w3.org/2000/svg">
<path d="M39.248 21V10.641H35.675V8.4H45.17V10.641H41.579V21H39.248ZM46.0544 21V11.802H48.3044V12.792C48.4724 12.438 48.7364 12.15 49.0964 11.928C49.4564 11.7 49.8344 11.586 50.2304 11.586C50.8844 11.586 51.4364 11.811 51.8864 12.261L51.5714 14.322C51.3254 14.118 51.0854 13.974 50.8514 13.89C50.6174 13.806 50.3594 13.764 50.0774 13.764C49.7054 13.764 49.3874 13.851 49.1234 14.025C48.8594 14.199 48.6554 14.451 48.5114 14.781C48.3734 15.111 48.3044 15.507 48.3044 15.969V21H46.0544ZM53.4728 21V11.802H55.7228V21H53.4728ZM54.5978 10.65C54.2378 10.65 53.9258 10.521 53.6618 10.263C53.4038 9.999 53.2748 9.687 53.2748 9.327C53.2748 8.967 53.4038 8.661 53.6618 8.409C53.9198 8.151 54.2318 8.022 54.5978 8.022C54.9758 8.022 55.2908 8.148 55.5428 8.4C55.7948 8.652 55.9208 8.961 55.9208 9.327C55.9208 9.693 55.7918 10.005 55.5338 10.263C55.2818 10.521 54.9698 10.65 54.5978 10.65ZM58.5524 24.654V11.802H60.8024V12.477C61.3064 11.883 61.9814 11.586 62.8274 11.586C63.6134 11.586 64.2914 11.781 64.8614 12.171C65.4314 12.555 65.8694 13.107 66.1754 13.827C66.4814 14.547 66.6344 15.405 66.6344 16.401C66.6344 17.367 66.4754 18.213 66.1574 18.939C65.8394 19.659 65.3924 20.22 64.8164 20.622C64.2404 21.018 63.5684 21.216 62.8004 21.216C62.3804 21.216 62.0024 21.141 61.6664 20.991C61.3304 20.835 61.0424 20.607 60.8024 20.307V23.637L58.5524 24.654ZM62.4674 19.065C63.0794 19.065 63.5504 18.834 63.8804 18.372C64.2104 17.904 64.3754 17.247 64.3754 16.401C64.3754 15.555 64.2074 14.898 63.8714 14.43C63.5354 13.962 63.0674 13.728 62.4674 13.728C62.1014 13.728 61.7804 13.794 61.5044 13.926C61.2344 14.058 61.0004 14.259 60.8024 14.529V18.246C60.9644 18.504 61.1924 18.705 61.4864 18.849C61.7864 18.993 62.1134 19.065 62.4674 19.065ZM73.5487 21V8.4H78.8677C79.9297 8.4 80.7727 8.595 81.3967 8.985C82.0207 9.369 82.4677 9.864 82.7377 10.47C83.0077 11.07 83.1427 11.697 83.1427 12.351C83.1427 12.807 83.0617 13.269 82.8997 13.737C82.7437 14.199 82.4947 14.625 82.1527 15.015C81.8167 15.399 81.3757 15.711 80.8297 15.951C80.2897 16.185 79.6357 16.302 78.8677 16.302H75.8797V21H73.5487ZM75.8797 14.106H78.9757C79.4077 14.106 79.7527 14.019 80.0107 13.845C80.2747 13.665 80.4637 13.44 80.5777 13.17C80.6917 12.9 80.7487 12.627 80.7487 12.351C80.7487 12.099 80.6947 11.838 80.5867 11.568C80.4847 11.292 80.3047 11.061 80.0467 10.875C79.7887 10.689 79.4317 10.596 78.9757 10.596H75.8797V14.106ZM85.0448 21V9.021L87.2948 8.004V21H85.0448ZM92.9111 21.216C91.9091 21.216 91.1141 20.946 90.5261 20.406C89.9441 19.86 89.6531 19.122 89.6531 18.192C89.6531 17.592 89.8031 17.067 90.1031 16.617C90.4091 16.161 90.8321 15.81 91.3721 15.564C91.9181 15.312 92.5541 15.186 93.2801 15.186C93.6821 15.186 94.0691 15.225 94.4411 15.303C94.8191 15.375 95.1491 15.48 95.4311 15.618V15.042C95.4311 14.526 95.2841 14.139 94.9901 13.881C94.7021 13.617 94.2761 13.485 93.7121 13.485C93.2621 13.485 92.8001 13.566 92.3261 13.728C91.8521 13.89 91.3721 14.13 90.8861 14.448L90.2111 12.675C90.7391 12.327 91.3271 12.06 91.9751 11.874C92.6231 11.682 93.2771 11.586 93.9371 11.586C95.1731 11.586 96.0971 11.88 96.7091 12.468C97.3211 13.05 97.6271 13.92 97.6271 15.078V21H95.4311V20.262C95.1191 20.574 94.7471 20.811 94.3151 20.973C93.8891 21.135 93.4211 21.216 92.9111 21.216ZM93.4331 19.317C93.8051 19.317 94.1621 19.245 94.5041 19.101C94.8521 18.951 95.1611 18.741 95.4311 18.471V17.382C95.1731 17.256 94.8851 17.16 94.5671 17.094C94.2551 17.022 93.9431 16.986 93.6311 16.986C93.0731 16.986 92.6321 17.094 92.3081 17.31C91.9901 17.52 91.8311 17.814 91.8311 18.192C91.8311 18.546 91.9721 18.822 92.2541 19.02C92.5361 19.218 92.9291 19.317 93.4331 19.317ZM100.318 21V11.802H102.568V12.684C102.862 12.318 103.213 12.045 103.621 11.865C104.035 11.679 104.506 11.586 105.034 11.586C106.06 11.586 106.852 11.904 107.41 12.54C107.968 13.17 108.247 14.079 108.247 15.267V21H106.006V15.96C106.006 15.186 105.871 14.622 105.601 14.268C105.337 13.908 104.923 13.728 104.359 13.728C103.747 13.728 103.294 13.908 103 14.268C102.712 14.622 102.568 15.174 102.568 15.924V21H100.318ZM111.076 21V11.802H113.326V12.684C113.62 12.318 113.971 12.045 114.379 11.865C114.793 11.679 115.264 11.586 115.792 11.586C116.818 11.586 117.61 11.904 118.168 12.54C118.726 13.17 119.005 14.079 119.005 15.267V21H116.764V15.96C116.764 15.186 116.629 14.622 116.359 14.268C116.095 13.908 115.681 13.728 115.117 13.728C114.505 13.728 114.052 13.908 113.758 14.268C113.47 14.622 113.326 15.174 113.326 15.924V21H111.076ZM125.605 21.216C124.723 21.216 123.961 21.018 123.319 20.622C122.683 20.226 122.191 19.668 121.843 18.948C121.501 18.222 121.33 17.37 121.33 16.392C121.33 15.402 121.504 14.547 121.852 13.827C122.206 13.107 122.701 12.555 123.337 12.171C123.979 11.781 124.735 11.586 125.605 11.586C126.349 11.586 127.024 11.742 127.63 12.054C128.236 12.366 128.719 12.846 129.079 13.494C129.439 14.136 129.619 14.955 129.619 15.951C129.619 16.107 129.613 16.299 129.601 16.527C129.595 16.749 129.58 16.974 129.556 17.202H123.553C123.577 17.622 123.673 17.991 123.841 18.309C124.015 18.621 124.252 18.864 124.552 19.038C124.852 19.212 125.206 19.299 125.614 19.299C126.052 19.299 126.433 19.227 126.757 19.083C127.081 18.933 127.387 18.696 127.675 18.372L128.971 19.713C128.575 20.163 128.098 20.526 127.54 20.802C126.982 21.078 126.337 21.216 125.605 21.216ZM123.562 15.447H127.441C127.411 15.045 127.321 14.7 127.171 14.412C127.021 14.118 126.811 13.893 126.541 13.737C126.271 13.581 125.944 13.503 125.56 13.503C125.032 13.503 124.582 13.665 124.21 13.989C123.838 14.313 123.622 14.799 123.562 15.447ZM131.888 21V11.802H134.138V12.792C134.306 12.438 134.57 12.15 134.93 11.928C135.29 11.7 135.668 11.586 136.064 11.586C136.718 11.586 137.27 11.811 137.72 12.261L137.405 14.322C137.159 14.118 136.919 13.974 136.685 13.89C136.451 13.806 136.193 13.764 135.911 13.764C135.539 13.764 135.221 13.851 134.957 14.025C134.693 14.199 134.489 14.451 134.345 14.781C134.207 15.111 134.138 15.507 134.138 15.969V21H131.888Z" fill="#0E424E"/>
<g clip-path="url(#clip0_418_213)">
<path d="M27.5 20V17.5L16.875 11.25V4.375C16.875 3.3375 16.0375 2.5 15 2.5C13.9625 2.5 13.125 3.3375 13.125 4.375V11.25L2.5 17.5V20L13.125 16.875V23.75L10 25.625V27.5L15 26.25L20 27.5V25.625L16.875 23.75V16.875L27.5 20Z" fill="#4AA1B5"/>
</g>
<defs>
<clipPath id="clip0_418_213">
<rect width="30" height="30" fill="white"/>
</clipPath>
</defs>
</svg>
